<?xml version="1.0" encoding="UTF-8" standalone="no"?>
<svg
   xmlns:dc="http://purl.org/dc/elements/1.1/"
   xmlns:cc="http://creativecommons.org/ns#"
   xmlns:rdf="http://www.w3.org/1999/02/22-rdf-syntax-ns#"
   xmlns:svg="http://www.w3.org/2000/svg"
   xmlns="http://www.w3.org/2000/svg"
   id="svg4"
   xml:space="preserve"
   enable-background="new 0 0 200 200"
   viewBox="0 0 200 200"
   y="0px"
   x="0px"
   version="1.1"><metadata
     id="metadata10"><rdf:RDF><cc:Work
         rdf:about=""><dc:format>image/svg+xml</dc:format><dc:type
           rdf:resource="http://purl.org/dc/dcmitype/StillImage" /></cc:Work></rdf:RDF></metadata><defs
     id="defs8" /><path
     id="path2"
     d="m113.88 40c-0.5417 0.0024-1.2675 0.01735-1.6133 0.03128-0.34574 0.01425-0.873 0.043-1.1719 0.06442-0.29887 0.02142-0.85711 0.07004-1.2402 0.10742-0.38276 0.03738-1.0262 0.11168-1.4316 0.16602-0.40518 0.05432-0.98023 0.13698-1.2754 0.18554-0.29514 0.04821-0.94875 0.17257-1.4531 0.27344-0.50434 0.10121-1.2841 0.27337-1.7324 0.38477-0.4483 0.11139-1.1661 0.3041-1.5957 0.42773-0.42962 0.12363-1.139 0.34581-1.5781 0.49219-0.43879 0.14672-1.0068 0.34342-1.2598 0.4375-0.25303 0.09407-0.72948 0.27873-1.0586 0.41015-0.32945 0.13144-0.90131 0.36993-1.2715 0.53125-0.37054 0.16133-1.0297 0.46775-1.4648 0.67969-0.43506 0.21192-1.0673 0.53189-1.4063 0.71289-0.33894 0.18135-0.90737 0.49833-1.2637 0.70313-0.35593 0.20513-0.89258 0.52573-1.1914 0.71289-0.29886 0.18747-0.77254 0.49483-1.0527 0.68163-0.2802 0.1868-0.71641 0.48412-0.96875 0.66211-0.252 0.17796-0.70306 0.50828-1.002 0.73242-0.29887 0.22381-0.80352 0.61497-1.1211 0.87109-0.31755 0.25608-0.80605 0.66192-1.0859 0.90235-0.27951 0.24045-0.69958 0.61323-0.93359 0.82617-0.23367 0.21295-0.8762 0.83769-1.4277 1.3906-0.55155 0.55292-1.2463 1.2809-1.5449 1.6172-0.29887 0.33623-0.69693 0.79536-0.88477 1.0195-0.18781 0.22416-0.51746 0.62936-0.73242 0.90039-0.21464 0.27068-0.5521 0.7053-0.74804 0.9668-0.1963 0.26151-0.52001 0.70882-0.7207 0.99414-0.20038 0.28563-0.53682 0.78386-0.74805 1.1055-0.21091 0.32163-0.52973 0.82167-0.70703 1.1113-0.17762 0.28936-0.46727 0.77759-0.64454 1.0859-0.17728 0.30804-0.48902 0.87274-0.6914 1.2559-0.20276 0.38276-0.4967 0.96397-0.6543 1.291-0.15759 0.32673-0.38623 0.81687-0.50781 1.0879-0.12159 0.27068-0.32356 0.73628-0.44922 1.0352-0.12532 0.29887-0.33502 0.82613-0.4668 1.1719-0.13178 0.3454-0.34716 0.93306-0.47656 1.3066-0.12974 0.37359-0.30911 0.91889-0.39844 1.2109l-0.16211 0.53125-0.34375 0.02346c-0.18849 0.01295-0.64143 0.05156-1.0059 0.08789-0.36408 0.03665-0.89168 0.09707-1.1719 0.13477-0.2802 0.03804-0.79099 0.11515-1.1367 0.17187-0.3454 0.05669-0.92659 0.16586-1.291 0.24023-0.36408 0.07436-0.93723 0.20168-1.2734 0.2832-0.33623 0.08151-0.91743 0.2326-1.291 0.33789-0.37359 0.10528-1.0065 0.29952-1.4082 0.43164-0.40144 0.1321-0.96809 0.3295-1.2578 0.43749-0.28936 0.10766-0.7243 0.2743-0.9668 0.3711-0.24215 0.09713-0.6558 0.26844-0.91797 0.38086-0.26186 0.11241-0.90613 0.41571-1.4336 0.67383-0.52745 0.25812-1.2162 0.61066-1.5293 0.7832-0.31313 0.17253-0.83702 0.47396-1.1641 0.66992-0.32672 0.19562-0.90594 0.56277-1.2891 0.81446-0.38276 0.25167-0.93293 0.62648-1.2227 0.83399-0.28936 0.20751-0.77143 0.56812-1.0703 0.80078-0.29887 0.23298-0.7351 0.58306-0.96875 0.77734-0.23332 0.19427-0.67602 0.57653-0.98437 0.84961-0.30804 0.27306-0.9667 0.90097-1.4629 1.3965-0.49586 0.49586-1.1238 1.1548-1.3965 1.4629-0.27272 0.30804-0.66646 0.76524-0.875 1.0176-0.20853 0.25234-0.55275 0.68014-0.76367 0.95117-0.21057 0.27068-0.55876 0.73823-0.77344 1.0371-0.21431 0.29887-0.52722 0.74962-0.69531 1.002-0.16812 0.25234-0.42088 0.64106-0.5625 0.86524-0.14129 0.22415-0.41332 0.67498-0.60352 1-0.18985 0.32537-0.44754 0.78252-0.57422 1.0176-0.12702 0.23536-0.37018 0.70591-0.54102 1.0469-0.17049 0.34099-0.42639 0.87664-0.56836 1.1895-0.14196 0.31279-0.36287 0.82056-0.49024 1.1289-0.1277 0.30804-0.33833 0.84592-0.46875 1.1934-0.13042 0.34744-0.33926 0.94317-0.46289 1.3242-0.12396 0.38106-0.30241 0.96006-0.39648 1.2871-0.09408 0.32672-0.25333 0.93082-0.35352 1.3418-0.10019 0.41095-0.24203 1.0438-0.31641 1.4082-0.07438 0.36408-0.18352 0.94528-0.24023 1.291-0.05672 0.3454-0.13256 0.86458-0.16992 1.1543-0.0377 0.28936-0.09129 0.74849-0.11914 1.0195-0.02785 0.27069-0.07464 0.82085-0.10352 1.2227-0.02887 0.40144-0.06301 1.2497-0.07422 1.8848-0.01257 0.70473-0.005 1.4981 0.01953 2.0371 0.02174 0.48567 0.06199 1.1599 0.08984 1.4961 0.02785 0.33623 0.08144 0.87804 0.11914 1.2051 0.03804 0.32672 0.10743 0.8543 0.1543 1.1719 0.04687 0.31756 0.13894 0.86381 0.20312 1.2129 0.06419 0.34948 0.1853 0.94519 0.26953 1.3242 0.08456 0.37935 0.20755 0.89415 0.27344 1.1465 0.06623 0.252 0.18989 0.69661 0.27344 0.98633 0.08355 0.28935 0.26012 0.85405 0.39258 1.2559 0.13211 0.40143 0.35387 1.0366 0.49414 1.4102 0.13992 0.37359 0.38904 0.99189 0.55273 1.375 0.16404 0.3831 0.43821 0.99531 0.60938 1.3594 0.17117 0.36408 0.47074 0.9626 0.66602 1.3301 0.19494 0.36747 0.49326 0.90961 0.66406 1.2051 0.17084 0.29548 0.44943 0.75864 0.61719 1.0293 0.16812 0.27069 0.50889 0.79555 0.75781 1.1641 0.24895 0.3685 0.65349 0.94127 0.90039 1.2734 0.24691 0.33182 0.65928 0.86339 0.91602 1.1816 0.25642 0.31788 0.65295 0.79155 0.88086 1.0527 0.22789 0.26084 0.69632 0.77417 1.041 1.1406 0.34506 0.3668 0.93549 0.9573 1.3125 1.3125 0.37699 0.35526 0.90055 0.83362 1.1621 1.0625 0.26151 0.22857 0.73516 0.62382 1.0527 0.87891 0.31755 0.25472 0.7602 0.60076 0.98438 0.76953 0.22415 0.16879 0.61284 0.45414 0.86523 0.63281 0.25268 0.17865 0.72832 0.49891 1.0547 0.7129 0.32672 0.21429 0.86082 0.5501 1.1875 0.74608 0.32706 0.19598 0.82332 0.48315 1.1035 0.63868 0.2802 0.15521 0.86976 0.46226 1.3086 0.68164 0.4388 0.21939 1.0394 0.50875 1.3359 0.64258 0.29649 0.13347 0.82223 0.35745 1.168 0.49805 0.34574 0.14027 0.88908 0.35124 1.209 0.46875 0.31993 0.11751 0.86556 0.30682 1.2109 0.41991 0.34574 0.11343 0.89623 0.28288 1.2246 0.37696 0.32808 0.0941 0.90375 0.24747 1.2773 0.33984 0.37359 0.0924 0.97511 0.22802 1.3379 0.30274 0.36273 0.0751 0.98077 0.1903 1.373 0.25586 0.39227 0.0656 1.0274 0.15913 1.4102 0.20702 0.3831 0.0476 0.94136 0.10922 1.2402 0.13673 0.29887 0.0272 0.82449 0.0684 1.1699 0.0918 0.35356 0.0238 1.2764 0.0414 2.1074 0.041 0.81273 0 1.76-0.018 2.1055-0.041 0.34574-0.023 0.87945-0.0656 1.1875-0.0937 0.30839-0.0282 0.86664-0.0895 1.2402-0.13672 0.37359-0.0468 1.0003-0.13986 1.3926-0.20507 0.39227-0.0656 1.0109-0.17919 1.375-0.25391 0.36442-0.0751 1.0447-0.23304 1.5117-0.35157 0.46698-0.11819 1.1817-0.31649 1.5879-0.43944 0.40586-0.12329 1.0245-0.32433 1.375-0.44727 0.3505-0.12329 0.83318-0.29927 1.0723-0.39063 0.23876-0.0914 0.65848-0.26021 0.93359-0.375 0.27476-0.11445 0.7525-0.32262 1.0606-0.46288 0.30838-0.13994 0.79963-0.37443 1.0937-0.52149 0.29378-0.14706 0.54722-0.26758 0.5625-0.26758 0.01531 0 0.07811 0.12511 0.14062 0.2793 0.06247 0.15419 0.2276 0.53986 0.36719 0.85742 0.13959 0.31754 0.42066 0.91324 0.62305 1.3242 0.20276 0.41095 0.54526 1.0686 0.76366 1.4609 0.21804 0.39227 0.54305 0.95051 0.7207 1.2402 0.17762 0.28936 0.51008 0.80856 0.73829 1.1543 0.22789 0.3454 0.60669 0.8941 0.84375 1.2188 0.23672 0.32503 0.56386 0.76126 0.72656 0.96876 0.16235 0.20785 0.48574 0.60651 0.71875 0.88672 0.23299 0.28019 0.63084 0.73737 0.88281 1.0176 0.25234 0.28019 0.73343 0.79178 1.0703 1.1348 0.33658 0.34268 0.85128 0.84085 1.1406 1.1074 0.28971 0.26627 0.67655 0.61602 0.86133 0.77734 0.18509 0.16167 0.55124 0.47117 0.81445 0.6875 0.26355 0.216 0.7701 0.61033 1.125 0.87696 0.35492 0.26661 0.90295 0.66254 1.2168 0.8789 0.31381 0.21599 0.88695 0.59023 1.2734 0.83203 0.38683 0.24181 0.99275 0.60434 1.3476 0.80469 0.35492 0.20072 1.0191 0.55167 1.4766 0.78125 0.45782 0.22925 1.0016 0.49288 1.207 0.58594 0.20548 0.0931 0.57161 0.25384 0.81444 0.35742 0.24284 0.10325 0.60287 0.25197 0.79884 0.33008 0.19631 0.0781 0.58505 0.22556 0.86523 0.32813 0.2802 0.10256 0.73934 0.26308 1.0195 0.35547 0.2802 0.0924 0.79098 0.25034 1.1367 0.35156 0.34574 0.10087 0.8669 0.24525 1.1562 0.32031 0.28971 0.0754 0.84545 0.20577 1.2363 0.29102 0.39091 0.0853 1.0631 0.21535 1.4941 0.28905 0.43098 0.0734 1.0187 0.16509 1.3066 0.20313 0.288 0.038 0.8321 0.0981 1.207 0.13477 0.37529 0.0363 0.95677 0.0856 1.293 0.10937 0.36103 0.0255 1.2433 0.0434 2.1562 0.043 0.89188-0.00033 1.7899-0.0185 2.123-0.043 0.31755-0.0231 0.82221-0.0643 1.1211-0.0918 0.29887-0.0274 0.79546-0.0808 1.1035-0.11913 0.30838-0.038 0.84409-0.11618 1.1895-0.17188 0.34573-0.0553 0.85652-0.14522 1.1367-0.19921 0.28019-0.0544 0.75384-0.15312 1.0527-0.22071 0.29887-0.0676 0.74992-0.17631 1.002-0.24219 0.25234-0.0659 0.74252-0.2022 1.0879-0.30273 0.34574-0.10087 0.96402-0.29792 1.375-0.4375 0.41095-0.13959 0.98714-0.34462 1.2813-0.45704 0.29378-0.11241 0.86693-0.34666 1.2734-0.51953 0.40654-0.17321 1.2204-0.55515 1.8086-0.8496 0.58857-0.29446 1.2608-0.64389 1.4941-0.77735 0.23366-0.13314 0.63078-0.36678 0.88282-0.51758 0.25234-0.15045 0.71953-0.44226 1.0371-0.64844 0.31754-0.20649 0.78312-0.51872 1.0352-0.6953 0.25235-0.17627 0.666-0.47559 0.91797-0.66407 0.25201-0.18884 0.65527-0.502 0.89845-0.69726 0.24282-0.19529 0.59443-0.48558 0.78125-0.64454 0.18679-0.15894 0.54681-0.47275 0.79882-0.69726 0.25234-0.2245 0.82575-0.77601 1.2754-1.2246 0.44967-0.44864 1.0173-1.036 1.2598-1.3066 0.2425-0.27103 0.56957-0.64719 0.72853-0.83399 0.15859-0.18679 0.44174-0.53035 0.6289-0.76367 0.1868-0.23366 0.47733-0.60788 0.64648-0.83203 0.16879-0.22416 0.41077-0.55133 0.53711-0.72656 0.12601-0.17525 0.42406-0.60952 0.66211-0.9668 0.23774-0.35729 0.58562-0.90282 0.77344-1.2129 0.18816-0.31042 0.49952-0.8461 0.69141-1.1894 0.19188-0.34371 0.56646-1.0677 0.83203-1.6094 0.26558-0.5417 0.60572-1.276 0.75585-1.6309 0.15046-0.3549 0.36601-0.88861 0.48048-1.1875 0.11478-0.29887 0.32296-0.88004 0.46288-1.291 0.13993-0.41095 0.35184-1.0832 0.47071-1.4941 0.11887-0.41095 0.28652-1.0316 0.37109-1.377 0.0846-0.34575 0.21563-0.92928 0.29102-1.2988 0.0754-0.36952 0.18097-0.9423 0.23632-1.2734 0.0557-0.33113 0.1335-0.83894 0.17188-1.127 0.038-0.28801 0.0981-0.83015 0.13476-1.2051 0.0367-0.37528 0.086-0.94225 0.10939-1.2598 0.0248-0.3403 0.043-1.2257 0.043-2.1562-0.00034-0.9289-0.0179-1.8244-0.043-2.1738-0.0235-0.32706-0.0647-0.83137-0.0918-1.1211-0.0272-0.28971-0.0807-0.77789-0.11915-1.0859-0.038-0.30839-0.12355-0.88957-0.18945-1.291-0.0656-0.40178-0.18081-1.0259-0.25586-1.3887-0.0751-0.36272-0.21009-0.9604-0.30078-1.3262-0.0907-0.36578-0.24959-0.95742-0.35351-1.3164-0.10358-0.35932-0.24458-0.82655-0.31251-1.0371-0.0679-0.21091-0.22283-0.65788-0.34375-0.99414-0.12089-0.33623-0.30979-0.84091-0.42187-1.1211-0.11173-0.28019-0.28652-0.70049-0.38672-0.93555-0.10018-0.23468-0.32755-0.73595-0.50586-1.1133-0.17795-0.37767-0.47627-0.97548-0.66406-1.3301-0.18815-0.35423-0.4806-0.88557-0.65039-1.1797-0.16982-0.29412-0.44838-0.75669-0.61719-1.0274-0.16914-0.27102-0.41254-0.65364-0.54297-0.8496-0.13041-0.19631-0.38453-0.56246-0.5625-0.81446-0.17796-0.25235-0.46077-0.64301-0.6289-0.86719-0.16846-0.22415-0.51539-0.6668-0.77149-0.98437-0.25573-0.31756-0.5987-0.72922-0.76171-0.91602-0.16303-0.18679-0.3182-0.3649-0.34571-0.39648-0.0448-0.0509 0.00059-0.16113 0.45508-1.0703 0.27816-0.55699 0.64195-1.3198 0.80663-1.6934 0.16506-0.37359 0.42963-0.99835 0.5879-1.3906 0.15861-0.39227 0.38351-0.97344 0.5-1.291 0.11684-0.31756 0.31259-0.88423 0.43554-1.2578 0.12294-0.37359 0.30913-0.96932 0.41407-1.3242 0.10494-0.35492 0.28933-1.0272 0.4082-1.4941 0.11921-0.46699 0.28713-1.1819 0.37305-1.5898 0.0856-0.40823 0.20602-1.0349 0.26953-1.3926 0.0635-0.35796 0.1617-0.97941 0.21875-1.3809 0.0571-0.40144 0.13613-1.0136 0.17383-1.3594 0.0377-0.34574 0.09-0.91013 0.11719-1.2559 0.0272-0.34574 0.0678-1.018 0.0898-1.4941 0.0248-0.54306 0.0318-1.4172 0.0195-2.3437-0.0105-0.81273-0.0346-1.7145-0.0547-2.0039-0.02-0.2897-0.0662-0.86473-0.10351-1.2774-0.0374-0.41231-0.10709-1.0535-0.1543-1.4258-0.0472-0.3719-0.12467-0.92182-0.17188-1.2207-0.0472-0.29887-0.13825-0.8326-0.20312-1.1875-0.0648-0.35492-0.18691-0.95904-0.27148-1.3418-0.0842-0.3831-0.23048-0.99531-0.32422-1.3594-0.0934-0.36442-0.24612-0.92912-0.33985-1.2559-0.0937-0.32706-0.28517-0.9454-0.42578-1.375-0.14026-0.42963-0.39838-1.1639-0.57227-1.6309-0.17388-0.46699-0.44626-1.1557-0.60351-1.5293-0.15759-0.37359-0.37502-0.87634-0.48438-1.1191-0.10936-0.24284-0.41608-0.87793-0.68163-1.4102-0.2656-0.53254-0.6584-1.2835-0.87305-1.668-0.21465-0.38445-0.54707-0.95757-0.73829-1.2734-0.19121-0.31585-0.47187-0.76471-0.62304-0.99805-0.15114-0.23367-0.45721-0.69279-0.67968-1.0195-0.22212-0.32706-0.59203-0.85095-0.82227-1.1641-0.2306-0.31348-0.59028-0.78714-0.79883-1.0527-0.20853-0.26593-0.55894-0.69749-0.77734-0.95899-0.21872-0.26151-0.5316-0.62766-0.69532-0.81446-0.16336-0.18679-0.52269-0.58394-0.79883-0.88281-0.27612-0.29887-0.87341-0.9104-1.3281-1.3594-0.45476-0.44898-1.0653-1.0308-1.3574-1.293-0.29208-0.26219-0.7202-0.63834-0.95117-0.83398-0.23094-0.19529-0.64949-0.53884-0.92968-0.76367s-0.84276-0.65735-1.25-0.96093c-0.40721-0.30362-1.0876-0.78469-1.5117-1.0703-0.42385-0.28563-1.0573-0.69831-1.4082-0.91602-0.35049-0.21736-0.90067-0.54476-1.2226-0.72851-0.32167-0.18408-0.83814-0.47005-1.1465-0.63477-0.30804-0.16506-0.9267-0.4789-1.375-0.69726-0.44831-0.21871-1.1206-0.53068-1.4942-0.69336-0.37359-0.16302-1.0019-0.42385-1.3965-0.58008-0.39431-0.15588-0.96741-0.374-1.2734-0.48437-0.30566-0.11038-0.82329-0.28823-1.1504-0.39453-0.32673-0.10631-0.93894-0.29248-1.3594-0.41406-0.4337-0.11618-1.1796-0.31442-1.6621-0.43359-0.48867-0.11887-1.1899-0.27711-1.5625-0.35352-0.37261-0.07607-1.0441-0.20105-1.4961-0.27539-0.44591-0.07436-1.1681-0.17969-1.5957-0.23437-0.42759-0.05465-1.0322-0.12218-1.3438-0.1504-0.30542-0.02851-0.78201-0.06687-1.0508-0.08593-0.27068-0.01938-0.85189-0.05156-1.291-0.07029-0.43914-0.01865-1.2396-0.03046-1.7812-0.02736zm0.0332 8.0176c0.72849-0.0033 1.5932 0.0073 1.9199 0.02541 0.32706 0.01865 0.86076 0.05742 1.1875 0.08594 0.32706 0.02851 0.83979 0.08212 1.1387 0.11914 0.29887 0.03738 0.79547 0.10675 1.1035 0.1543 0.30804 0.04789 0.79853 0.13214 1.0879 0.1875 0.2897 0.05506 0.80051 0.16161 1.1367 0.23633 0.33623 0.07468 0.89883 0.21164 1.25 0.30469 0.35118 0.0934 0.96079 0.2703 1.3555 0.39258 0.39465 0.1226 0.99443 0.32338 1.332 0.44531 0.33759 0.12192 0.87382 0.3245 1.1914 0.45118 0.31755 0.12668 0.81416 0.33519 1.1035 0.46289 0.2897 0.12771 0.91642 0.42666 1.3926 0.66406 0.47649 0.2374 1.1 0.56201 1.3867 0.72266 0.28632 0.16064 0.76807 0.44009 1.0703 0.6211 0.30193 0.18102 0.86944 0.5441 1.2617 0.80664 0.39226 0.26287 0.95087 0.6526 1.2402 0.86524 0.2897 0.21226 0.77789 0.58581 1.0859 0.83203 0.30839 0.24588 0.74457 0.60466 0.96875 0.79688 0.22415 0.19188 0.64083 0.56399 0.92578 0.82617 0.28494 0.26253 0.8416 0.8084 1.2383 1.2129 0.39668 0.4045 0.92991 0.97108 1.1836 1.2598 0.25404 0.28902 0.64966 0.75496 0.8789 1.0352 0.22925 0.28019 0.63668 0.79964 0.9043 1.1562 0.26763 0.35695 0.72152 1.0001 1.0078 1.4277 0.28597 0.42793 0.68892 1.0605 0.89648 1.4063 0.20717 0.3454 0.50144 0.85312 0.6543 1.1289 0.15318 0.27544 0.49089 0.93317 0.75 1.4609 0.25913 0.52744 0.58408 1.2257 0.72266 1.5527 0.13857 0.32672 0.35234 0.85594 0.4746 1.1738 0.12227 0.3179 0.31651 0.8516 0.43165 1.1875 0.11513 0.33589 0.29723 0.90901 0.40625 1.2734 0.10901 0.36408 0.28473 0.99918 0.38867 1.4102 0.10358 0.41095 0.24883 1.0484 0.32422 1.418 0.0754 0.36951 0.18292 0.9423 0.23828 1.2734 0.0557 0.33113 0.13936 0.89925 0.18555 1.2637 0.0462 0.36408 0.10784 0.92266 0.13671 1.2402 0.0289 0.31755 0.0704 0.85325 0.0918 1.1895 0.0214 0.33623 0.0391 1.1906 0.0391 1.9004s-0.0173 1.5742-0.0391 1.9199c-0.0221 0.34574-0.0643 0.87299-0.0918 1.1719-0.0275 0.29887-0.0795 0.79546-0.11718 1.1035-0.038 0.30804-0.12357 0.88957-0.18945 1.291-0.0659 0.40144-0.17308 0.98906-0.23829 1.3066-0.0652 0.31755-0.17799 0.82221-0.24999 1.1211-0.0723 0.29887-0.1944 0.77254-0.27149 1.0527-0.0771 0.28019-0.22514 0.78489-0.33008 1.1211-0.10461 0.33623-0.29511 0.90529-0.42382 1.2656-0.12873 0.36035-0.34556 0.9351-0.48243 1.2754-0.13687 0.33997-0.347 0.8353-0.46484 1.1016-0.11786 0.26627-0.2253 0.48437-0.24023 0.48437-0.015 0-0.19153-0.11406-0.39259-0.25195-0.2014-0.1379-0.65773-0.43152-1.0137-0.65429-0.35592-0.22246-0.90087-0.55031-1.2109-0.72657l-0.56445-0.32031-0.0586-0.39063c-0.0319-0.21464-0.10997-0.68026-0.17383-1.0352-0.0639-0.35492-0.17079-0.89898-0.23633-1.207-0.0656-0.30804-0.20212-0.88956-0.30468-1.291-0.10291-0.40144-0.2721-1.0089-0.375-1.3516-0.10326-0.34268-0.2844-0.91213-0.4043-1.2637-0.11954-0.35152-0.32475-0.91099-0.45313-1.2441-0.12837-0.33318-0.29815-0.75852-0.37695-0.94531-0.0791-0.1868-0.23558-0.54648-0.34765-0.79883-0.11208-0.25234-0.3679-0.79409-0.57032-1.2051-0.20275-0.41095-0.5352-1.0461-0.73827-1.4102-0.20311-0.36441-0.51131-0.89753-0.68556-1.1855-0.17423-0.28766-0.45706-0.73837-0.6289-1.002-0.17151-0.26321-0.46242-0.69162-0.64648-0.95312-0.18408-0.26151-0.49512-0.68967-0.69141-0.95118-0.1963-0.26151-0.47914-0.62765-0.62891-0.81445s-0.43389-0.53196-0.63086-0.76563c-0.19732-0.23332-0.5025-0.58494-0.67773-0.78125-0.17559-0.19596-0.54981-0.59897-0.83204-0.89649-0.28222-0.29718-0.79488-0.80808-1.1406-1.1348-0.3454-0.32638-0.88945-0.8168-1.207-1.0898-0.31755-0.27306-0.76831-0.65042-1.002-0.83789-0.23332-0.18748-0.63889-0.50062-0.90038-0.69727-0.26152-0.19698-0.70419-0.51889-0.98438-0.71484-0.28019-0.19631-0.75141-0.5126-1.0469-0.70313-0.29514-0.19053-0.7604-0.48017-1.0352-0.64453-0.27441-0.16404-0.72763-0.42682-1.0078-0.58203-0.2802-0.1552-0.86947-0.46158-1.3086-0.68164-0.43914-0.21973-1.0246-0.5007-1.3027-0.625-0.27816-0.12397-0.78342-0.33868-1.123-0.47657-0.33962-0.13822-0.93377-0.36559-1.3203-0.50586-0.38616-0.14061-0.99776-0.34725-1.3574-0.45898-0.35932-0.11174-0.84448-0.25707-1.0781-0.32227-0.23333-0.06524-0.66792-0.17919-0.9668-0.25391-0.29888-0.07469-0.79547-0.18998-1.1035-0.25586-0.30804-0.06589-0.81305-0.16535-1.1211-0.2207-0.30805-0.05571-0.82725-0.138-1.1543-0.18555-0.32672-0.04724-0.8004-0.11013-1.0527-0.13867-0.25235-0.02851-0.71953-0.07403-1.0371-0.10156-0.31756-0.02753-0.94429-0.06809-1.3926-0.08984-0.50299-0.02443-1.3094-0.03144-2.1055-0.01955-0.7098 0.01051-1.5952 0.04137-1.9688 0.07029-0.37359 0.02851-0.83274 0.0685-1.0195 0.08789-0.1868 0.01898-0.53002 0.05774-0.76368 0.08594-0.23331 0.02851-0.67797 0.09019-0.98632 0.13671-0.30804 0.04618-0.7281 0.11498-0.93359 0.15234-0.20548 0.03771-0.63361 0.12323-0.95118 0.18946-0.31756 0.06621-0.87793 0.19447-1.2461 0.28516-0.36815 0.09102-0.94127 0.2444-1.2734 0.33984-0.33249 0.09577-0.96322 0.29274-1.4023 0.43946-0.4388 0.14707-1.0739 0.37416-1.4102 0.5039-0.33623 0.12974-0.8706 0.34692-1.1875 0.48243-0.31654 0.13551-0.85026 0.37366-1.1875 0.53124-0.33692 0.15793-0.84901 0.41136-1.1387 0.5625-0.28937 0.15079-0.77143 0.4123-1.0703 0.58008s-0.73511 0.41995-0.96875 0.56055c-0.23332 0.14095-0.72992 0.45563-1.1035 0.70117-0.37359 0.24522-0.90085 0.60487-1.1719 0.79882-0.27068 0.19393-0.61731 0.45077-0.77148 0.57031l-0.28125 0.21875-0.89062-0.22266c-0.49295-0.12034-1.1926-0.28082-1.5566-0.35351-0.36406-0.0733-0.77528-0.15379-0.91211-0.17578-0.20852-0.03429-0.24491-0.04887-0.22656-0.0957 0.01189-0.03095 0.10608-0.27815 0.20898-0.54883 0.10256-0.27103 0.30676-0.77634 0.45313-1.1231 0.14672-0.34642 0.39889-0.91116 0.56055-1.2559 0.162-0.34438 0.4111-0.84842 0.55273-1.1191 0.14163-0.27103 0.36406-0.68462 0.49414-0.91796 0.13042-0.23367 0.39372-0.68559 0.58594-1.0059 0.19224-0.32027 0.48287-0.78526 0.64453-1.0332 0.16133-0.24792 0.45468-0.68129 0.65235-0.96289 0.19766-0.28155 0.54648-0.75799 0.77539-1.0586 0.22924-0.30057 0.55856-0.72066 0.73242-0.9336 0.17355-0.21328 0.49086-0.58724 0.70312-0.83008 0.21193-0.24283 0.6627-0.73702 1.002-1.0977 0.33928-0.36068 0.90681-0.92691 1.2617-1.2598 0.35492-0.33318 0.82612-0.76285 1.0469-0.95508 0.22042-0.19257 0.59497-0.50886 0.83203-0.70312s0.63664-0.50962 0.88868-0.70117c0.25235-0.19189 0.65106-0.48655 0.88477-0.6543 0.23367-0.16777 0.63078-0.4429 0.88281-0.61133 0.252-0.16811 0.67855-0.44254 0.94921-0.61132 0.27103-0.1688 0.69274-0.42258 0.93555-0.5625 0.24284-0.13992 0.65452-0.36916 0.91602-0.50977 0.26151-0.14027 0.67723-0.35685 0.92383-0.48047 0.2469-0.12362 0.70605-0.34011 1.0195-0.48242 0.31381-0.1423 0.79988-0.35386 1.0801-0.47071 0.2802-0.11682 0.77679-0.312 1.1035-0.43359 0.32707-0.12125 0.77777-0.28457 1.002-0.36132 0.22416-0.0764 0.63485-0.20934 0.91406-0.29492 0.27918-0.08558 0.72379-0.21316 0.98633-0.28516s0.72907-0.19219 1.0371-0.26758c0.30839-0.07542 0.87311-0.19966 1.2559-0.27539 0.3831-0.07607 0.97885-0.18326 1.3242-0.23828 0.34575-0.05538 0.95793-0.13868 1.3594-0.18555 0.40143-0.04724 1.043-0.11013 1.4258-0.13867 0.38311-0.02883 0.79673-0.05669 0.91798-0.06247 0.12124-0.0057 0.81643-0.01222 1.5449-0.01564zm-6.457 23.994h0.002c0.37359 0.0073 0.93023 0.02818 1.2383 0.04683 0.30804 0.01833 0.78207 0.05612 1.0527 0.08399 0.27103 0.02753 0.72176 0.08274 1.002 0.12109 0.28019 0.03803 0.76227 0.11549 1.0703 0.17187 0.30804 0.05604 0.82755 0.16102 1.1543 0.23438 0.32706 0.07338 0.81723 0.19354 1.0879 0.26757 0.27103 0.07403 0.72822 0.20942 1.0176 0.30079 0.2897 0.09136 0.71136 0.23107 0.93554 0.31054 0.22416 0.07917 0.6315 0.23472 0.90626 0.34375 0.27442 0.10902 0.66317 0.2698 0.86523 0.35742 0.20174 0.08763 0.62773 0.28467 0.94531 0.4375 0.31756 0.15249 0.833 0.41765 1.1465 0.58984 0.31313 0.17185 0.78677 0.44448 1.0527 0.60547 0.26559 0.16098 0.73493 0.45928 1.043 0.66406 0.30805 0.2048 0.85214 0.59081 1.207 0.85743 0.35491 0.26627 0.83721 0.64682 1.0723 0.84375 0.23536 0.19732 0.5954 0.50637 0.79883 0.68945 0.20378 0.18271 0.5513 0.50928 0.77343 0.7246 0.22212 0.21532 0.62583 0.62825 0.89649 0.91797 0.27068 0.28936 0.71219 0.78874 0.98047 1.1094 0.26831 0.3206 0.67542 0.83368 0.90429 1.1387 0.22925 0.30498 0.56933 0.78426 0.75782 1.0645 0.18849 0.2802 0.45806 0.69184 0.59765 0.91601 0.13958 0.22415 0.38871 0.64272 0.55274 0.92969 0.16405 0.28665 0.49424 0.92179 0.73437 1.4102 0.23978 0.48804 0.54827 1.1618 0.68751 1.4981 0.13924 0.33622 0.35268 0.88644 0.4746 1.2227 0.12193 0.33623 0.29111 0.8325 0.375 1.1035 0.0839 0.27068 0.21494 0.72177 0.29102 1.002 0.0757 0.2802 0.19906 0.78488 0.27343 1.1211 0.0744 0.33623 0.17256 0.81798 0.21876 1.0703 0.0462 0.25201 0.11497 0.6721 0.15234 0.93359 0.0374 0.26151 0.0906 0.68126 0.11914 0.93359 0.0282 0.25201 0.072 0.68856 0.0957 0.96875 0.0268 0.31518 0.043 1.0795 0.043 2.0039 0 0.92445-0.0161 1.6887-0.043 2.0039-0.0238 0.28019-0.0675 0.71446-0.0957 0.9668-0.0282 0.252-0.0814 0.67209-0.11914 0.93359-0.0377 0.26151-0.10615 0.68321-0.15234 0.93555-0.0459 0.252-0.13784 0.70922-0.20508 1.0176-0.0669 0.30804-0.20509 0.86664-0.30665 1.2402-0.10188 0.37359-0.29825 1.0195-0.4375 1.4356-0.13924 0.41571-0.35429 1.0102-0.47656 1.3203-0.1226 0.30973-0.31531 0.77067-0.42773 1.0254-0.11276 0.25472-0.32432 0.70893-0.4707 1.0078s-0.38208 0.75803-0.5254 1.0195c-0.14367 0.26151-0.39922 0.70419-0.56836 0.98438-0.16913 0.28019-0.4749 0.76196-0.67968 1.0703-0.2048 0.30804-0.59118 0.85018-0.85742 1.2051-0.26661 0.35492-0.66066 0.8546-0.875 1.1113-0.2143 0.25641-0.58852 0.68453-0.83203 0.95116-0.24318 0.26627-0.7066 0.74494-1.0313 1.0625-0.32503 0.31756-0.81331 0.76952-1.084 1.0059-0.27034 0.23672-0.66816 0.57289-0.88281 0.74609-0.21464 0.17321-0.58817 0.46316-0.83203 0.64453-0.24419 0.18102-0.68044 0.48799-0.96876 0.68359-0.28868 0.19562-0.76111 0.50242-1.0508 0.67969-0.28936 0.17729-0.77144 0.45604-1.0703 0.62109-0.29887 0.16506-0.84906 0.44983-1.2226 0.63086-0.37359 0.18103-0.88438 0.41578-1.1367 0.52345-0.25234 0.10732-0.63496 0.26443-0.84961 0.34765-0.21464 0.0835-0.60567 0.2276-0.86719 0.32031-0.26151 0.0927-0.74131 0.25044-1.0684 0.34961-0.32672 0.0992-0.83979 0.24228-1.1387 0.31836-0.29887 0.0764-0.80297 0.19321-1.1191 0.25977-0.31586 0.0665-0.84154 0.16475-1.1699 0.21875-0.32807 0.0537-0.78783 0.12278-1.0215 0.15234-0.23332 0.0296-0.67828 0.0773-0.98633 0.10547-0.30804 0.0279-0.9778 0.0675-1.4883 0.0879-0.67584 0.0272-1.1802 0.0255-1.8555-0.002-0.50978-0.0207-1.1702-0.0588-1.4688-0.0859-0.29818-0.0275-0.78485-0.0811-1.082-0.11915-0.29684-0.038-0.72316-0.10063-0.94727-0.13867-0.22416-0.038-0.63778-0.11549-0.91797-0.17187-0.2802-0.056-0.73093-0.15583-1.002-0.2207-0.27069-0.0645-0.70726-0.17724-0.96876-0.25196-0.26151-0.0747-0.7807-0.23676-1.1543-0.35937-0.37359-0.12294-0.9609-0.33486-1.3066-0.47071-0.3454-0.13585-0.8191-0.33068-1.0527-0.43359-0.23332-0.10256-0.61596-0.27796-0.84961-0.38867-0.23332-0.11106-0.66145-0.32849-0.95117-0.48438-0.28936-0.15555-0.74851-0.41239-1.0195-0.57031-0.27068-0.15759-0.79633-0.49069-1.1699-0.73828-0.37359-0.24724-0.86316-0.58272-1.0859-0.7461-0.22313-0.16302-0.62332-0.47066-0.89062-0.68359-0.26763-0.21328-0.73541-0.60387-1.0391-0.86914-0.30362-0.26524-0.84974-0.78139-1.2148-1.1465-0.3651-0.36511-0.84132-0.86267-1.0566-1.1055-0.21532-0.24284-0.54484-0.62891-0.73438-0.85743-0.18952-0.22857-0.5486-0.68771-0.79687-1.0195-0.24793-0.33182-0.62867-0.87053-0.8457-1.1973-0.21736-0.32706-0.53215-0.82333-0.69922-1.1035-0.16744-0.2802-0.4298-0.74238-0.58399-1.0273-0.15418-0.28495-0.40763-0.78124-0.5625-1.1035-0.15488-0.32196-0.35064-0.7474-0.43555-0.94336-0.08456-0.1963-0.19456-0.45492-0.24414-0.57616-0.04993-0.12159-0.17843-0.4587-0.28711-0.74806-0.10834-0.2897-0.27472-0.76338-0.36914-1.0527-0.09475-0.2897-0.24346-0.77765-0.33007-1.084-0.0866-0.30634-0.2151-0.80908-0.28711-1.1191-0.072-0.31008-0.17766-0.80239-0.23438-1.0918-0.05669-0.2897-0.14062-0.7924-0.1875-1.1191-0.04724-0.32706-0.11727-0.89375-0.1543-1.2578-0.03665-0.36442-0.08536-1.0221-0.10743-1.4609-0.02411-0.48159-0.03209-1.1741-0.01955-1.748 0.01157-0.52303 0.03852-1.1643 0.05864-1.4258 0.01971-0.26151 0.06613-0.75168 0.10351-1.0879 0.03706-0.33623 0.11193-0.89481 0.16797-1.2402 0.05571-0.34574 0.13316-0.78842 0.17188-0.98438 0.03869-0.19631 0.13138-0.61602 0.20508-0.93359 0.07371-0.31756 0.21774-0.87112 0.32031-1.2305 0.10223-0.35899 0.27949-0.92368 0.39258-1.2559 0.11309-0.33182 0.31752-0.88851 0.45508-1.2363 0.13789-0.34777 0.36654-0.88745 0.50781-1.1992 0.14129-0.31177 0.34173-0.73562 0.44531-0.9414 0.10325-0.20615 0.31796-0.61098 0.47656-0.9004 0.15894-0.28903 0.41909-0.7429 0.58008-1.0078 0.16064-0.26491 0.44603-0.71004 0.63281-0.99023 0.1868-0.2802 0.48354-0.70866 0.66016-0.95117 0.17661-0.24215 0.49695-0.66104 0.71094-0.92969 0.21397-0.26831 0.60652-0.73358 0.8711-1.0352 0.26423-0.30158 0.7701-0.83974 1.125-1.1953 0.35429-0.35612 0.84478-0.82344 1.0879-1.0391 0.24284-0.21532 0.60091-0.52667 0.79687-0.69141 0.19631-0.16438 0.65955-0.5243 1.0273-0.80078 0.36815-0.27612 0.95583-0.69281 1.3066-0.92578 0.35117-0.23298 0.84562-0.54586 1.0977-0.69531 0.25235-0.14909 0.58531-0.34301 0.74219-0.43164 0.15691-0.0883 0.60153-0.31787 0.98633-0.50977 0.38481-0.19189 0.89776-0.4353 1.1406-0.54296 0.24284-0.10733 0.70195-0.29944 1.0195-0.42578 0.31756-0.12669 0.8513-0.32432 1.1875-0.43946 0.33623-0.1148 0.8459-0.2765 1.1309-0.35938 0.28529-0.08286 0.73417-0.20492 0.99805-0.27148 0.26423-0.06654 0.72681-0.17316 1.0274-0.23633 0.30091-0.06353 0.77645-0.15362 1.0566-0.20117 0.28019-0.04724 0.75225-0.11787 1.0508-0.15624 0.29853-0.03836 0.81127-0.09351 1.1387-0.12305 0.32739-0.02924 0.93089-0.06418 1.3418-0.07811 0.41095-0.01393 1.0522-0.01922 1.4258-0.01173zm-31.221 6.006h0.0016c0.58835 0.0073 1.3749 0.03787 1.748 0.06833 0.37358 0.03054 0.72822 0.06556 0.78906 0.07811l0.11133 0.0215-0.31641 0.4414c-0.17423 0.24284-0.48524 0.69392-0.69141 1.002-0.20616 0.30804-0.51225 0.7817-0.67969 1.0527-0.16709 0.27068-0.43573 0.72176-0.5957 1.002-0.15997 0.2802-0.43568 0.78489-0.61328 1.1211-0.17796 0.33623-0.45644 0.8945-0.61914 1.2402-0.16302 0.34574-0.42971 0.9411-0.59375 1.3242-0.16405 0.38276-0.42088 1.0243-0.57031 1.4258-0.14909 0.40144-0.36347 1.0136-0.47656 1.3594-0.11276 0.34574-0.28288 0.89622-0.37696 1.2246-0.09408 0.32809-0.24644 0.90589-0.33985 1.2832-0.09339 0.37733-0.23065 0.98695-0.30469 1.3555-0.07403 0.36815-0.18122 0.95309-0.23828 1.2988-0.05709 0.3454-0.14132 0.92659-0.1875 1.291-0.04585 0.36407-0.10657 0.92265-0.13477 1.2402-0.02851 0.31755-0.07037 0.86776-0.0918 1.2227-0.02175 0.35491-0.03869 1.2257-0.03909 1.9355-0.000334 0.7098 0.01735 1.5807 0.03909 1.9356 0.02175 0.35491 0.06198 0.89672 0.08985 1.2051 0.02786 0.30805 0.08917 0.8747 0.13672 1.2578 0.04789 0.38275 0.13214 0.96976 0.1875 1.3047 0.05498 0.33487 0.16068 0.90766 0.23438 1.2734 0.07371 0.36578 0.21808 1.0012 0.32031 1.4121 0.10223 0.41095 0.25519 0.99213 0.34179 1.291 0.08627 0.29887 0.25018 0.82418 0.36329 1.1699 0.11343 0.3454 0.28627 0.85006 0.38476 1.1211 0.09883 0.27068 0.27235 0.72432 0.38476 1.0059 0.11242 0.28188 0.31311 0.76164 0.44727 1.0684 0.13415 0.30668 0.42575 0.92469 0.64648 1.373 0.22042 0.44831 0.52549 1.044 0.67969 1.3242 0.15385 0.28019 0.46404 0.81586 0.6875 1.1894 0.22314 0.37359 0.59173 0.96286 0.82032 1.3086 0.22857 0.34539 0.58016 0.85652 0.78125 1.1367 0.20106 0.28018 0.5499 0.74542 0.77539 1.0352 0.22517 0.2897 0.5632 0.71137 0.75 0.93555 0.18714 0.22415 0.5019 0.58937 0.69922 0.8125 0.19698 0.22347 0.59567 0.65966 0.88671 0.96874 0.29072 0.30907 0.78088 0.80007 1.0879 1.0918 0.30668 0.2914 0.67865 0.63991 0.82813 0.77539 0.14944 0.13552 0.53205 0.46605 0.84961 0.73438 0.31755 0.26865 0.81227 0.67139 1.0996 0.89453 0.28767 0.22347 0.73033 0.55741 0.98438 0.74219 0.25438 0.18476 0.76094 0.53579 1.125 0.77929 0.36442 0.24351 0.96821 0.62513 1.3418 0.84962 0.37359 0.22415 0.82468 0.48778 1.002 0.58593 0.17762 0.0982 0.33407 0.19574 0.34766 0.21679 0.01393 0.0207 0.02541 0.079 0.02541 0.12892 0.000668 0.0781-0.03885 0.11644-0.27929 0.25976-0.15418 0.092-0.43947 0.25655-0.63477 0.36523-0.19563 0.10868-0.6548 0.34531-1.0195 0.52735-0.3651 0.18204-0.87718 0.4252-1.1387 0.54101-0.26151 0.11582-0.7662 0.32653-1.1211 0.4668-0.35492 0.14027-0.9816 0.36576-1.3926 0.50196-0.41095 0.13619-1.0002 0.31675-1.3086 0.40234-0.30804 0.0853-0.82103 0.21663-1.1406 0.29101-0.31925 0.0744-0.82393 0.18098-1.1211 0.23633-0.29684 0.0557-0.8015 0.13996-1.1211 0.1875-0.31925 0.0479-0.87586 0.11567-1.2383 0.15235-0.36238 0.0367-0.97242 0.0853-1.3555 0.10742-0.43676 0.0251-1.1531 0.0333-1.9199 0.0215-0.67247-0.0102-1.5039-0.0443-1.8496-0.0742-0.34539-0.0299-0.81909-0.0773-1.0527-0.10546-0.23332-0.0282-0.67798-0.0895-0.98633-0.13672-0.30804-0.0475-0.82536-0.14021-1.1504-0.20508-0.32536-0.0648-0.81551-0.17078-1.0879-0.23633-0.27272-0.0659-0.80828-0.21027-1.1914-0.32031-0.38276-0.1097-0.89739-0.26733-1.1426-0.35156-0.24521-0.0842-0.64848-0.2299-0.89843-0.32227-0.24963-0.0924-0.69422-0.2664-0.98633-0.38867-0.29242-0.12227-0.79711-0.34657-1.1211-0.49805-0.32434-0.1518-0.84636-0.41425-1.1602-0.58203-0.31348-0.16777-0.71671-0.38988-0.89843-0.49414-0.18136-0.10427-0.59871-0.35771-0.92578-0.5625-0.32672-0.2048-0.80686-0.52234-1.0684-0.70508-0.26151-0.18305-0.65223-0.46528-0.86718-0.62696-0.21498-0.16166-0.61929-0.4811-0.89844-0.70898-0.27951-0.22789-0.73671-0.62162-1.0176-0.875-0.28121-0.25336-0.75245-0.7013-1.0469-0.99609-0.29446-0.29446-0.73064-0.75107-0.96875-1.0156-0.23842-0.26457-0.51749-0.5819-0.62109-0.70312-0.10359-0.12159-0.31796-0.38147-0.47656-0.57812-0.15827-0.19664-0.4445-0.56677-0.63672-0.82422-0.19257-0.25744-0.55226-0.76894-0.79883-1.1367-0.24691-0.36816-0.58123-0.89145-0.74219-1.1621-0.16098-0.27068-0.41808-0.72176-0.57227-1.002-0.15419-0.28019-0.42309-0.80312-0.59766-1.1621-0.17457-0.35932-0.43081-0.91795-0.56836-1.2402-0.13789-0.32265-0.34071-0.83002-0.45312-1.1289-0.11208-0.29887-0.29706-0.82651-0.41016-1.1719-0.1131-0.34574-0.25867-0.81939-0.32422-1.0527-0.0652-0.23366-0.17341-0.63889-0.23828-0.9004-0.0652-0.26151-0.17919-0.77461-0.25391-1.1387-0.07472-0.36442-0.17511-0.9146-0.22266-1.2226-0.04789-0.30838-0.11728-0.82756-0.1543-1.1543-0.03702-0.32707-0.08755-0.82332-0.11133-1.1035-0.02819-0.32604-0.04331-1.0906-0.04297-2.123 0.00034-1.2692 0.013-1.7538 0.06055-2.2734 0.03295-0.3634 0.09087-0.90552 0.12891-1.2051 0.03804-0.2999 0.12264-0.85943 0.1875-1.2422 0.06453-0.38309 0.18785-1.0098 0.27344-1.3926 0.08593-0.3831 0.23864-0.99336 0.33984-1.3574 0.10087-0.36442 0.28984-0.98126 0.41992-1.3691 0.13008-0.38785 0.35005-0.98971 0.48828-1.3398 0.13823-0.35016 0.34478-0.85178 0.46094-1.1133 0.11582-0.26151 0.34632-0.74973 0.51172-1.0859 0.16574-0.33623 0.42036-0.82639 0.56641-1.0879 0.14638-0.26151 0.38062-0.66509 0.51953-0.89843 0.1389-0.23366 0.46632-0.74639 0.72852-1.1387 0.26186-0.39227 0.63766-0.92667 0.83398-1.1875 0.19596-0.26084 0.49679-0.64742 0.66797-0.85937 0.17151-0.21227 0.50539-0.61067 0.74414-0.88477 0.23842-0.27407 0.80262-0.86714 1.252-1.3164 0.44933-0.44967 1.0234-0.99769 1.2754-1.2188 0.252-0.22076 0.73411-0.62161 1.0703-0.89062 0.33623-0.26898 0.88761-0.68785 1.2266-0.92968 0.33895-0.24181 0.88914-0.61262 1.2227-0.82422 0.33351-0.21159 0.82894-0.51175 1.0996-0.66798 0.27103-0.15589 0.84383-0.46198 1.2734-0.67969 0.42963-0.2177 0.97479-0.48159 1.2129-0.58789 0.23808-0.1063 0.69726-0.29902 1.0195-0.42774 0.3223-0.12906 0.826-0.32024 1.1191-0.42383 0.29276-0.10392 0.81199-0.27336 1.1543-0.37695 0.342-0.10392 0.9245-0.2647 1.293-0.35742 0.3685-0.09238 0.93639-0.22156 1.2617-0.2871 0.32537-0.06556 0.88667-0.16467 1.248-0.22071 0.36136-0.05571 0.85674-0.12322 1.0996-0.15039 0.24283-0.02753 0.64001-0.06646 0.88281-0.08789 0.24283-0.02101 0.67707-0.05237 0.9668-0.06833 0.28935-0.01596 1.0079-0.02232 1.5957-0.01564zm65.451 25.789 0.12305 0.0937c0.0683 0.0509 0.26158 0.20739 0.42969 0.34766 0.16812 0.14026 0.50521 0.43187 0.74804 0.64649 0.24284 0.2143 0.74067 0.68891 1.1055 1.0547 0.36509 0.36545 0.85955 0.88523 1.0996 1.1562 0.24046 0.27069 0.64568 0.75274 0.90039 1.0703 0.25438 0.31756 0.60534 0.77513 0.78126 1.0176 0.17558 0.24283 0.50646 0.72459 0.73437 1.0703 0.22755 0.34574 0.5429 0.84969 0.70117 1.1211 0.15826 0.27136 0.42784 0.75311 0.59765 1.0703 0.16982 0.31722 0.45262 0.89033 0.62891 1.2734 0.1766 0.38276 0.43683 0.98689 0.57812 1.3418 0.14094 0.35491 0.34878 0.91967 0.4629 1.2559 0.11378 0.33624 0.27489 0.84089 0.35742 1.1211 0.0825 0.28018 0.2185 0.78756 0.30273 1.1289 0.0842 0.34166 0.20662 0.89184 0.27149 1.2227 0.0648 0.33114 0.15592 0.8557 0.20312 1.1641 0.0475 0.30804 0.11694 0.8586 0.1543 1.2227 0.037 0.36408 0.0841 0.91431 0.10352 1.2226 0.0194 0.30805 0.0352 1.0255 0.0352 1.5957 0 0.5699-0.0164 1.2816-0.0352 1.5801-0.0187 0.29854-0.0574 0.78705-0.0859 1.0859-0.0289 0.29887-0.0979 0.86357-0.1543 1.2558-0.0564 0.39228-0.1639 1.0197-0.23828 1.3926-0.0744 0.37292-0.21197 0.97481-0.30469 1.3379-0.0927 0.36306-0.23803 0.88694-0.32226 1.1641-0.0842 0.27747-0.22946 0.73044-0.32422 1.0058-0.0948 0.27544-0.27227 0.75213-0.39454 1.0606-0.12192 0.30804-0.31123 0.76159-0.41991 1.0078-0.10868 0.24623-0.35712 0.76983-0.55274 1.1621-0.19529 0.39194-0.48779 0.94399-0.64844 1.2266-0.16063 0.28291-0.40814 0.69982-0.55078 0.92773-0.14231 0.22755-0.38181 0.59613-0.53125 0.82031-0.14977 0.22415-0.41714 0.60678-0.59375 0.84961-0.17695 0.24283-0.52296 0.6936-0.76953 1.002-0.24691 0.30838-0.64532 0.78169-0.88477 1.0527-0.23944 0.27068-0.7503 0.80596-1.1348 1.1894-0.38445 0.38345-0.88135 0.85805-1.1055 1.0547-0.22415 0.19698-0.59469 0.51433-0.82226 0.70312-0.22789 0.18884-0.66443 0.52956-0.96875 0.75782-0.30466 0.22824-0.88146 0.63253-1.2832 0.89844-0.40144 0.26592-0.95163 0.61156-1.2226 0.76952-0.27069 0.15794-0.71244 0.40738-0.98243 0.55274-0.27001 0.14537-0.68365 0.35506-0.91796 0.4668-0.23435 0.11174-0.62749 0.29332-0.87305 0.40234-0.24555 0.10936-0.69629 0.29706-1.002 0.41797-0.30566 0.12057-0.82981 0.31294-1.166 0.42774-0.33623 0.11513-0.87189 0.2833-1.1895 0.37499-0.31755 0.0921-0.82836 0.22802-1.1367 0.30274-0.30804 0.0747-0.83218 0.18998-1.1641 0.25586-0.3318 0.0659-0.92144 0.16534-1.3086 0.2207-0.38751 0.0557-0.9327 0.12483-1.2129 0.15234-0.2802 0.0274-0.80538 0.0678-1.166 0.0898-0.42147 0.0258-1.1244 0.0337-1.9688 0.0215-0.76758-0.0112-1.5476-0.0413-1.875-0.0722-0.30805-0.0289-0.80464-0.085-1.1035-0.12304-0.29888-0.038-0.77255-0.1071-1.0527-0.1543-0.28019-0.0472-0.73092-0.13147-1.002-0.18751-0.27068-0.0557-0.76145-0.16942-1.0898-0.25195-0.32876-0.0822-0.84796-0.22599-1.1543-0.31836-0.30668-0.0924-0.74878-0.2321-0.98242-0.31054-0.23333-0.0784-0.707-0.25317-1.0527-0.38868-0.3454-0.13552-0.79646-0.31922-1.002-0.4082-0.20513-0.0887-0.63366-0.28662-0.95117-0.43945-0.31756-0.15283-0.83313-0.41868-1.1445-0.58984-0.31178-0.17084-0.7625-0.42699-1.002-0.57032-0.23944-0.14332-0.71677-0.44914-1.0625-0.67773-0.34574-0.22892-0.85006-0.58242-1.1211-0.78516-0.27068-0.20276-0.68237-0.52209-0.91601-0.71094-0.23333-0.18849-0.62439-0.51693-0.86719-0.72851-0.24284-0.2116-0.80043-0.74343-1.2402-1.1836-0.43982-0.4405-0.97359-0.99937-1.1856-1.2422-0.21226-0.24283-0.58676-0.69361-0.83398-1.002-0.2469-0.30838-0.615-0.79012-0.8164-1.0703-0.20106-0.28019-0.50621-0.72287-0.67773-0.98437-0.17185-0.26151-0.45713-0.72066-0.63477-1.0195-0.17763-0.29887-0.44992-0.78096-0.60547-1.0703-0.15589-0.2897-0.39013-0.74691-0.51953-1.0176-0.12939-0.27103-0.34658-0.75275-0.48243-1.0703-0.13585-0.31756-0.33748-0.82222-0.44921-1.1211-0.11208-0.29886-0.2456-0.67192-0.29688-0.82812l-0.09375-0.2832 0.08789-0.0879 0.0879-0.0879 0.29882 0.0586c0.16404 0.0322 0.5825 0.11125 0.93164 0.17578 0.3488 0.0645 0.89897 0.15626 1.2227 0.20312 0.32332 0.0465 0.85685 0.11533 1.1836 0.15235 0.32706 0.0371 0.90631 0.0909 1.2891 0.12109 0.38412 0.0305 1.2986 0.064 2.0391 0.0742 0.82598 0.0112 1.6472 0.003 2.1387-0.0215 0.43913-0.0221 1.0574-0.0623 1.375-0.0899 0.31755-0.0272 0.78477-0.073 1.0371-0.10156 0.25234-0.0289 0.71757-0.0902 1.0352-0.13672 0.31754-0.0465 0.79062-0.12305 1.0508-0.16992 0.2605-0.0468 0.73419-0.13953 1.0527-0.20508 0.31891-0.0656 0.99171-0.22352 1.4961-0.35156 0.50434-0.12804 1.2615-0.34122 1.6816-0.47266 0.42046-0.13178 1.0199-0.32967 1.332-0.4414 0.31211-0.1114 0.85671-0.31676 1.2109-0.45703 0.35424-0.14061 0.90874-0.37265 1.2324-0.51563 0.32367-0.14298 0.97887-0.45366 1.4551-0.6914 0.47649-0.23774 1.0803-0.5525 1.3418-0.69922 0.26151-0.14638 0.73546-0.42369 1.0547-0.61524 0.31891-0.19155 0.76356-0.46702 0.98633-0.61133 0.22246-0.144 0.62575-0.4157 0.89648-0.60351 0.27102-0.18781 0.69884-0.49322 0.95117-0.67969 0.25235-0.18679 0.63496-0.48118 0.84961-0.65234 0.21498-0.17118 0.55045-0.44278 0.74609-0.60547 0.19596-0.16302 0.60763-0.52117 0.91602-0.79492 0.30872-0.27408 0.92115-0.8578 1.3613-1.2969 0.44049-0.43913 1.0081-1.0284 1.2598-1.3086 0.25133-0.28019 0.6785-0.77678 0.94922-1.1035 0.27102-0.32706 0.622-0.76131 0.78125-0.9668 0.15929-0.20547 0.45638-0.60261 0.66016-0.88281 0.20344-0.28019 0.56041-0.7933 0.79102-1.1387 0.23094-0.34574 0.57593-0.8875 0.76952-1.2051 0.19325-0.31755 0.52231-0.88422 0.73047-1.2578 0.20786-0.37359 0.55211-1.0294 0.76368-1.459 0.21192-0.42963 0.51861-1.0874 0.68164-1.4609 0.16302-0.37359 0.41731-0.99225 0.5664-1.375 0.14911-0.3831 0.3988-1.0799 0.55469-1.5469 0.15554-0.46698 0.36814-1.1457 0.4707-1.5098 0.10258-0.36442 0.23982-0.87717 0.30469-1.1387 0.0652-0.26151 0.1724-0.7271 0.23829-1.0352 0.0659-0.30838 0.16627-0.81305 0.22265-1.1211 0.0564-0.30838 0.12575-0.722 0.15429-0.91796 0.0285-0.1963 0.0614-0.39887 0.0722-0.45118z"
     fill="#fbfca9" /></svg>